<?xml version="1.0" encoding="iso-8859-1"?>
<!-- Generator: Adobe Illustrator 18.0.0, SVG Export Plug-In . SVG Version: 6.00 Build 0)  -->
<!DOCTYPE svg PUBLIC "-//W3C//DTD SVG 1.1//EN" "http://www.w3.org/Graphics/SVG/1.1/DTD/svg11.dtd">
<svg version="1.1" id="Capa_1" xmlns="http://www.w3.org/2000/svg" xmlns:xlink="http://www.w3.org/1999/xlink" x="0px" y="0px"
	 viewBox="0 0 482.461 482.461" style="enable-background:new 0 0 482.461 482.461;" xml:space="preserve">
<g>
	<path d="M368.854,294.77v-59.23c0-12.417-10.102-22.519-22.519-22.519H136.126c-12.417,0-22.519,10.102-22.519,22.519v59.23
		c0,12.417,10.102,22.519,22.519,22.519h210.209C358.752,317.288,368.854,307.187,368.854,294.77z"/>
	<path d="M323.708,193.021c4.5-46.552,12.667-133.85,14.194-169.441c0.252-5.879-1.946-11.555-6.189-15.983
		C327.089,2.769,320.591,0,313.884,0H169.35c-6.706,0-13.205,2.769-17.829,7.596c-4.243,4.428-6.44,10.104-6.188,15.983
		c1.526,35.591,9.694,122.888,14.194,169.441H323.708z"/>
	<path d="M346.335,337.288h-49.524l34.4,137.598c1.124,4.496,5.162,7.575,9.693,7.575c0.406,0,0.817-0.024,1.23-0.075
		c5.013-0.617,8.778-4.875,8.778-9.925V337.038C349.407,337.2,347.882,337.288,346.335,337.288z"/>
	<path d="M136.126,337.288c-1.546,0-3.072-0.088-4.577-0.25v135.423c0,5.05,3.766,9.308,8.778,9.925
		c0.413,0.051,0.823,0.076,1.23,0.075c4.531,0,8.569-3.079,9.693-7.575l34.4-137.598H136.126z"/>
</g>
<g>
</g>
<g>
</g>
<g>
</g>
<g>
</g>
<g>
</g>
<g>
</g>
<g>
</g>
<g>
</g>
<g>
</g>
<g>
</g>
<g>
</g>
<g>
</g>
<g>
</g>
<g>
</g>
<g>
</g>
</svg>
