<svg height="51pt" viewBox="-32 1 511 511.99899" width="51pt" xmlns="http://www.w3.org/2000/svg"><path d="m440.546875 247.28125c-9.5625-18.15625-28.222656-29.433594-48.695313-29.433594h-2.859374v-171.136718c0-25.757813-20.957032-46.710938-46.714844-46.710938h-237.175782c-25.757812 0-46.710937 20.953125-46.710937 46.710938v171.136718h-2.875c-20.472656 0-39.128906 11.277344-48.691406 29.433594-9.460938 17.957031-8.238281 39.464844 3.195312 56.132812.429688.628907.875 1.257813 1.332031 1.894532 22.628907 31.519531 41.097657 62.058594 47.039063 72.078125v45.699219c-15.800781 6.101562-27.042969 21.441406-27.042969 39.367187v19.238281h-15.757812v30.308594h46.066406v-49.546875c0-6.554687 5.332031-11.886719 11.886719-11.886719h301.324219c6.554687 0 11.886718 5.332032 11.886718 11.886719v49.546875h46.0625v-30.308594h-15.757812v-19.238281c0-18.3125-11.730469-33.929687-28.066406-39.753906v-45.328125c5.941406-10.027344 24.375-40.511719 47.019531-72.046875.460937-.640625.90625-1.28125 1.339843-1.914063 11.429688-16.664062 12.652344-38.167968 3.195313-56.128906zm-81.863281-200.570312v241.257812h-39.386719v-257.664062h22.980469c9.046875 0 16.40625 7.359374 16.40625 16.40625zm0 297.613281h-269.988282v-26.046875h269.988282zm-199-56.351563v-257.667968h129.308594v257.667968zm-70.988282-241.261718c0-9.046876 7.359376-16.40625 16.40625-16.40625h24.277344v257.667968h-40.683594zm-30.316406 273.574218c-6.679687-10.152344-14.253906-21.292968-22.410156-32.648437-.328125-.460938-.652344-.917969-.960938-1.367188-5.125-7.472656-5.636718-16.769531-1.371093-24.863281 4.371093-8.300781 12.550781-13.253906 21.878906-13.253906h2.863281zm30.316406 54.34375h269.988282v45.632813h-269.988282zm323.664063-88.355468c-.308594.445312-.625.894531-.957031 1.363281-8.15625 11.355469-15.730469 22.496093-22.410156 32.648437v-72.132812h2.859374c9.332032 0 17.511719 4.953125 21.882813 13.253906 4.265625 8.097656 3.75 17.390625-1.375 24.867188zm0 0"/></svg>